P1
# CREATOR: GIMP PNM Filter Version 1.1
48 48
0000000000000000000000000000000000000000000000000000000000000001111000
0000000111100000000000000000000000000000100011000000001000010000000000
0000000000000000010010001100001100110010000000000000000000000000010111
0000111100011110110000000000000000000000001011111000000000011110010000
0000000000000000000110111100000000000001110010000000000000000000000100
0000000000000000000000100000000000000000000001000000000000000000000000
1000000000000000000000100000000000000000000000001000000000000000000000
1000000000000000000000000001000000000000000000001000000000000000000000
0000011110000000000000000010000111000000000001110000011011000000000000
0000100000011100000000110000001100011000000000000001000000000100000001
1000000011000011000000000000010000001110000000000111000010000001000000
0000001100000001100000000001100000011000011000000000000110000000000000
0000000000000110000010000000000000100000000000000000000000000111110010
0000000000001000000000001111000000000001000000100000000000001000000000
0001100000000000010000001000000000000010000000000000000000000000010000
0010000000000000110000000000000000000000001100000110000000000000111000
0000001111000000000010000001000000000000011010000000000110000000000100
0000110000000000000100011000000000000000000110000001100000000000001100
0011110000000000001111000000011000000000000110000000111111111111111100
0000001100000000000001100000000011111111111100000000011000000000000011
0000000000001000000100000000001100000000000000100000000000001000000100
0000000011000000000000001000000001000001000010000000000110000000000000
0011100000010000001111000000000001100000000000000111000000110000000000
0000000000011000000000000000110100001000000000000000000000001000000000
0000001101001110000000000000000000000010000000000000000111111000000000
0000000000000000110000000000000001100000000000000000000000000000110000
0000000000011000000000000000000000000000001100000000000000011000000000
0000000000000000000001000000000000000110000010000000000000000000000001
0000000000000001100000110000000000000000100000010000000000000000100000
0100000000000000001000000100000000000000001100000110000000000000001000
0011000000000000000001111111100011111100000111111110000000000000000001
1100111111110001111111010011100000000000000000000111111100000000001111
1111100000000000000000000000000000000000000000000000000000000000